<svg width="452" height="382" viewBox="0 0 452 382" fill="none" xmlns="http://www.w3.org/2000/svg">
<g clip-path="url(#clip0_17_840)">
<path d="M241.737 53.7249C256.721 42.6907 277.816 38.4607 294.323 47.0689C275.74 55.1119 260.611 69.4479 251.611 87.5406C248.166 94.5307 245.063 102.663 237.954 105.894C233.531 107.904 228.31 107.516 223.73 105.893C219.15 104.269 215.075 101.512 211.057 98.7833L209.852 98.6387C217.003 81.4905 226.753 64.7591 241.737 53.7249Z" fill="#F0F0F0"/>
<path d="M294.19 47.4353C278.778 47.9167 263.91 53.2267 251.698 62.6112C249.033 64.5849 246.697 66.9651 244.775 69.664C242.989 72.3534 241.957 75.4707 241.788 78.692C241.57 81.6923 241.695 84.7865 240.749 87.6816C240.242 89.1564 239.429 90.5079 238.362 91.6473C237.295 92.7868 235.998 93.6884 234.557 94.2933C231.005 95.8935 227.089 96.1261 223.251 96.2209C218.989 96.3261 214.561 96.3682 210.686 98.3685C210.216 98.6108 209.867 97.8703 210.335 97.6283C217.078 94.1482 224.957 96.4188 232.044 94.3475C235.351 93.3811 238.386 91.4153 239.714 88.1263C240.875 85.2502 240.748 82.0593 240.943 79.0195C241.062 75.8747 241.952 72.8068 243.534 70.0837C245.311 67.2959 247.552 64.83 250.159 62.7915C255.956 58.1089 262.455 54.364 269.418 51.6939C277.348 48.6027 285.751 46.8866 294.262 46.6199C294.789 46.6036 294.713 47.4191 294.19 47.4353V47.4353Z" fill="white"/>
<path d="M255.452 59.3586C254.151 57.1024 253.696 54.4584 254.17 51.899C254.644 49.3396 256.015 47.0314 258.038 45.3865C258.448 45.0551 258.984 45.6755 258.573 46.0074C256.686 47.5356 255.41 49.6858 254.973 52.07C254.537 54.4543 254.97 56.9154 256.194 59.0092C256.46 59.4645 255.716 59.8113 255.452 59.3586V59.3586Z" fill="white"/>
<path d="M241.698 77.1561C246.838 78.5882 252.33 78.0365 257.08 75.611C257.551 75.3703 257.901 76.1107 257.431 76.3511C252.483 78.866 246.766 79.4285 241.421 77.9265C240.911 77.783 241.191 77.0133 241.698 77.1561Z" fill="white"/>
<path d="M277.309 49.6875C277.631 50.6651 278.19 51.5479 278.938 52.2566C279.686 52.9653 280.598 53.4778 281.594 53.748C282.105 53.885 281.825 54.6545 281.317 54.5184C280.218 54.2148 279.211 53.6476 278.383 52.8664C277.555 52.0852 276.932 51.1137 276.567 50.0369C276.524 49.9382 276.521 49.827 276.557 49.7258C276.593 49.6247 276.667 49.5411 276.763 49.4921C276.862 49.4463 276.974 49.4412 277.077 49.4778C277.179 49.5143 277.263 49.5897 277.309 49.6875H277.309Z" fill="white"/>
<path d="M307.41 108.577C307.088 108.501 306.767 108.424 306.44 108.352C302.112 107.346 297.71 106.692 293.276 106.396C292.933 106.368 292.586 106.344 292.243 106.326C281.553 105.728 270.845 107.113 260.662 110.411C256.612 111.728 252.667 113.349 248.863 115.262C243.61 117.904 238.125 121.185 232.47 121.921C231.881 122.005 231.287 122.052 230.692 122.062L209.769 100.115C209.747 100.042 209.719 99.9725 209.696 99.8986L208.821 99.0605C209.01 98.9481 209.209 98.8357 209.398 98.7234C209.507 98.6578 209.622 98.5971 209.731 98.5315C209.806 98.4893 209.88 98.4473 209.945 98.405C209.97 98.3909 209.995 98.377 210.015 98.3676C210.079 98.3253 210.144 98.2928 210.204 98.2553C211.313 97.6237 212.428 96.9989 213.55 96.3807C213.555 96.376 213.555 96.376 213.565 96.3761C222.125 91.6877 231.153 87.6704 240.505 85.1469C240.787 85.0711 241.073 84.9902 241.364 84.9244C245.586 83.8103 249.892 83.0419 254.24 82.6272C256.621 82.4077 259.012 82.3085 261.403 82.33C267.582 82.3975 273.712 83.4334 279.568 85.3997C291.241 89.3214 301.526 96.921 307 107.746C307.139 108.023 307.275 108.295 307.41 108.577Z" fill="#F0F0F0"/>
<path d="M307.083 108.792C294.487 99.9268 279.409 95.243 263.991 95.4065C260.671 95.3829 257.368 95.8812 254.204 96.8829C251.153 97.958 248.447 99.8279 246.366 102.298C244.38 104.563 242.611 107.108 240.107 108.852C238.812 109.726 237.346 110.317 235.806 110.586C234.266 110.855 232.686 110.797 231.17 110.415C227.368 109.561 224.1 107.396 220.978 105.168C217.512 102.694 213.951 100.07 209.649 99.3415C209.128 99.2532 209.296 98.452 209.816 98.5402C217.302 99.8084 222.222 106.35 229.131 108.95C232.355 110.163 235.965 110.415 239.012 108.586C241.676 106.986 243.502 104.363 245.493 102.053C247.488 99.613 250.051 97.6973 252.959 96.4729C256.062 95.3138 259.34 94.6895 262.653 94.6268C270.109 94.367 277.56 95.2776 284.733 97.3251C292.932 99.6166 300.677 103.289 307.633 108.185C308.064 108.488 307.511 109.094 307.083 108.793L307.083 108.792Z" fill="white"/>
<path d="M268.952 95.0623C269.276 92.4797 270.51 90.096 272.434 88.3367C274.358 86.5775 276.846 85.5573 279.455 85.4583C279.983 85.4401 280.036 86.2571 279.508 86.2753C277.078 86.363 274.76 87.3135 272.972 88.9554C271.184 90.5973 270.043 92.8223 269.756 95.2289C269.693 95.7518 268.89 95.5822 268.952 95.0623H268.952Z" fill="white"/>
<path d="M247.222 101.018C250.461 105.246 255.179 108.102 260.437 109.016C260.958 109.106 260.79 109.908 260.27 109.818C254.8 108.856 249.896 105.874 246.535 101.466C246.215 101.046 246.903 100.599 247.222 101.017V101.018Z" fill="white"/>
<path d="M292.245 100.459C291.911 101.432 291.825 102.473 291.994 103.488C292.163 104.502 292.582 105.459 293.214 106.273C293.539 106.689 292.85 107.135 292.527 106.722C291.834 105.82 291.372 104.762 291.183 103.642C290.993 102.521 291.082 101.371 291.441 100.292C291.467 100.188 291.531 100.097 291.621 100.038C291.711 99.9791 291.821 99.9566 291.927 99.9751C292.033 99.9977 292.126 100.061 292.186 100.152C292.246 100.242 292.267 100.353 292.245 100.459V100.459Z" fill="white"/>
<path d="M237.784 70.1406H236.162V25.8611C236.162 22.4957 235.497 19.1631 234.205 16.0538C232.913 12.9445 231.02 10.1194 228.633 7.7396C226.245 5.35984 223.411 3.47212 220.292 2.1842C217.173 0.896286 213.83 0.2334 210.454 0.233398H116.349C112.973 0.233391 109.63 0.896264 106.511 2.18417C103.392 3.47208 100.558 5.35979 98.1707 7.73954C95.7835 10.1193 93.8898 12.9445 92.5979 16.0538C91.3059 19.1631 90.641 22.4956 90.641 25.8611V268.782C90.641 275.578 93.3495 282.097 98.1706 286.903C102.992 291.709 109.531 294.409 116.349 294.409H210.454C217.272 294.409 223.811 291.709 228.633 286.903C233.454 282.097 236.162 275.579 236.162 268.782V101.659H237.784V70.1406Z" fill="#3F3D56"/>
<path d="M211.492 6.9009H199.208C199.773 8.28154 199.988 9.77948 199.836 11.2628C199.683 12.7461 199.167 14.1692 198.333 15.4067C197.498 16.6443 196.371 17.6583 195.051 18.3595C193.731 19.0607 192.259 19.4275 190.763 19.4276H136.851C135.355 19.4275 133.883 19.0607 132.562 18.3595C131.242 17.6583 130.116 16.6443 129.281 15.4067C128.447 14.1692 127.931 12.7461 127.778 11.2628C127.626 9.77947 127.841 8.28152 128.406 6.90088H116.933C111.841 6.90088 106.958 8.91725 103.358 12.5064C99.7573 16.0956 97.7346 20.9635 97.7346 26.0394V268.603C97.7346 271.117 98.2311 273.605 99.196 275.927C100.161 278.249 101.575 280.359 103.358 282.136C105.14 283.914 107.257 285.323 109.586 286.285C111.915 287.247 114.412 287.742 116.933 287.742H211.492C214.013 287.742 216.509 287.247 218.839 286.285C221.168 285.323 223.284 283.914 225.067 282.136C226.85 280.359 228.264 278.249 229.229 275.927C230.193 273.605 230.69 271.117 230.69 268.603V26.0394C230.69 20.9635 228.667 16.0956 225.067 12.5064C221.466 8.91726 216.583 6.90089 211.492 6.9009Z" fill="white"/>
<path d="M166.029 209.821C159.066 209.827 152.17 208.465 145.736 205.812C139.301 203.158 133.455 199.266 128.531 194.358C123.607 189.449 119.703 183.621 117.041 177.207C114.38 170.792 113.013 163.918 113.019 156.976C113.009 147.229 115.708 137.67 120.816 129.358C125.923 121.047 133.24 114.308 141.955 109.889C148.273 106.685 155.169 104.774 162.239 104.268C169.309 103.762 176.409 104.672 183.121 106.944C195.007 110.981 205.069 119.094 211.516 129.837C217.963 140.58 220.375 153.255 218.324 165.605C216.272 177.955 209.889 189.178 200.312 197.276C190.736 205.373 178.587 209.819 166.029 209.821L166.029 209.821ZM166.029 106.204C157.987 106.181 150.057 108.077 142.901 111.734C136.645 114.911 131.116 119.343 126.661 124.751C122.206 130.16 118.92 136.428 117.01 143.162C115.1 149.897 114.608 156.952 115.563 163.885C116.519 170.818 118.901 177.48 122.562 183.451C126.223 189.423 131.083 194.576 136.836 198.586C142.589 202.596 149.112 205.377 155.995 206.755C162.878 208.133 169.972 208.077 176.833 206.592C183.693 205.106 190.171 202.223 195.86 198.123C198.611 196.144 201.155 193.894 203.453 191.407C210.173 184.158 214.628 175.113 216.271 165.378C217.913 155.644 216.673 145.644 212.701 136.601C208.73 127.559 202.199 119.868 193.91 114.469C185.62 109.07 175.931 106.198 166.029 106.204Z" fill="#F0F0F0"/>
<path d="M51.1646 110.079C52.6197 110.261 54.0171 110.758 55.2583 111.537C56.4995 112.315 57.5544 113.355 58.3487 114.584C59.143 115.813 59.6574 117.201 59.8556 118.649C60.0537 120.098 59.9309 121.572 59.4958 122.968L77.1083 137.593L70.8035 150.43L46.2221 129.429C43.918 128.544 42.0193 126.848 40.8857 124.662C39.7522 122.475 39.4626 119.95 40.0718 117.565C40.6811 115.18 42.1468 113.101 44.1913 111.721C46.2358 110.341 48.7169 109.757 51.1647 110.079L51.1646 110.079Z" fill="#FFB6B6"/>
<path d="M215.658 171.068C215.304 167.283 213.844 160.478 212.605 157.962C208.796 148.023 184.184 139.855 180.879 138.802L180.041 129.511L145.844 125.843L141.506 137.724L129.241 142.311C128.408 142.621 127.655 143.11 127.034 143.744C126.414 144.378 125.941 145.142 125.652 145.979L114.648 149.15L103.79 152.279L66.0659 125.781L64.2849 126.941L52.3804 134.685L50.5438 135.88L99.3615 179.786L117.496 175.544L131.133 172.346L132.297 177.057L129.283 193.608C138.015 202.317 149.575 207.639 161.887 208.62C174.2 209.601 186.461 206.177 196.47 198.962L204.217 192.109C209.616 186.289 213.602 179.31 215.865 171.711L215.658 171.068Z" fill="#FF6916"/>
<path d="M173.687 118.244C186.596 113.984 193.596 100.097 189.322 87.2285C185.048 74.3597 171.118 67.3814 158.209 71.6422C145.3 75.9029 138.3 89.7892 142.574 102.658C146.848 115.527 160.778 122.505 173.687 118.244Z" fill="#FFB6B6"/>
<path d="M146.499 66.9617C148.893 63.554 152.485 61.1687 156.562 60.2799C160.593 59.4534 164.788 60.2206 168.262 62.4193C172.04 60.9022 176.114 59.8957 180.116 60.4074C184.118 60.9191 188.04 63.1475 189.892 66.8187C190.281 67.7697 190.754 68.6848 191.304 69.5533C192.936 71.7231 195.967 72.0046 198.645 72.1088C197.291 72.8959 195.937 73.683 194.583 74.4699C195.932 75.0967 197.282 75.7236 198.631 76.3504C196.795 77.0493 194.958 77.7482 193.122 78.4471C197.396 82.1928 198.43 88.8587 196.812 94.4475C195.279 99.7387 191.766 104.193 187.843 108.006C187.078 105.161 187.92 102.076 188.48 99.1301C189.073 96.0175 189.167 92.3778 186.981 90.1802C185.506 88.6978 183.343 88.2499 181.303 87.8902C171.014 86.0762 160.629 84.847 150.2 84.2086C148.804 84.0163 147.382 84.1611 146.054 84.6306C143.516 85.7549 142.496 88.8426 141.76 91.5805C141.408 86.7748 141.69 81.9439 142.598 77.2112C143.293 73.589 144.389 69.9635 146.499 66.9617Z" fill="#2F2E41"/>
<path d="M178.502 234.718H149.399C148.388 234.718 147.419 234.318 146.704 233.605C145.989 232.893 145.588 231.927 145.588 230.919C145.588 229.911 145.989 228.945 146.704 228.232C147.419 227.52 148.388 227.12 149.399 227.12H178.502C179.513 227.12 180.482 227.52 181.197 228.232C181.912 228.945 182.313 229.911 182.313 230.919C182.313 231.927 181.912 232.893 181.197 233.605C180.482 234.318 179.513 234.718 178.502 234.718Z" fill="#46B20F"/>
<path d="M83.0024 31.4049H2.95078C2.21311 31.4038 1.50603 31.1108 0.984825 30.5904C0.463621 30.07 0.170883 29.3647 0.170883 28.6294C0.170883 27.894 0.463621 27.1887 0.984825 26.6683C1.50603 26.1479 2.21311 25.8549 2.95078 25.8538H83.0024C83.7408 25.8538 84.449 26.1462 84.9711 26.6667C85.4933 27.1872 85.7866 27.8932 85.7866 28.6294C85.7866 29.3655 85.4933 30.0715 84.9711 30.592C84.449 31.1125 83.7408 31.4049 83.0024 31.4049Z" fill="#46B20F"/>
<path d="M129.222 49.1324H2.95078C2.21239 49.1324 1.50424 48.84 0.982115 48.3195C0.459993 47.799 0.166672 47.0931 0.166672 46.357C0.166672 45.6209 0.459993 44.9149 0.982115 44.3944C1.50424 43.8739 2.21239 43.5815 2.95078 43.5815H129.222C129.96 43.5815 130.668 43.8739 131.19 44.3944C131.712 44.9149 132.006 45.6209 132.006 46.357C132.006 47.0931 131.712 47.799 131.19 48.3195C130.668 48.84 129.96 49.1324 129.222 49.1324Z" fill="#46B20F"/>
<path d="M104.956 65.8336H2.95083C2.21243 65.8336 1.50428 65.5412 0.982161 65.0207C0.460039 64.5002 0.166718 63.7942 0.166718 63.0581C0.166718 62.322 0.460039 61.6161 0.982161 61.0956C1.50428 60.5751 2.21243 60.2827 2.95083 60.2827H104.956C105.695 60.2827 106.403 60.5751 106.925 61.0956C107.447 61.6161 107.74 62.322 107.74 63.0581C107.74 63.7942 107.447 64.5002 106.925 65.0207C106.403 65.5412 105.695 65.8336 104.956 65.8336Z" fill="#CACACA"/>
<path d="M60.471 82.4732H2.95083C2.21243 82.4732 1.50428 82.1808 0.982161 81.6603C0.460039 81.1398 0.166718 80.4339 0.166718 79.6978C0.166718 78.9617 0.460039 78.2558 0.982161 77.7353C1.50428 77.2148 2.21243 76.9224 2.95083 76.9224H60.471C61.2094 76.9224 61.9176 77.2148 62.4397 77.7353C62.9618 78.2558 63.2551 78.9617 63.2551 79.6978C63.2551 80.4339 62.9618 81.1398 62.4397 81.6603C61.9176 82.1808 61.2094 82.4732 60.471 82.4732Z" fill="#CACACA"/>
<path d="M92.2464 99.1119H2.95074C2.21311 99.1107 1.50611 98.8178 0.984935 98.2974C0.463762 97.7771 0.171036 97.0718 0.171036 96.3365C0.171036 95.6011 0.463762 94.8958 0.984935 94.3755C1.50611 93.8551 2.21311 93.5622 2.95074 93.561H92.2464C92.984 93.5622 93.691 93.8551 94.2122 94.3755C94.7334 94.8958 95.0261 95.6011 95.0261 96.3365C95.0261 97.0718 94.7334 97.7771 94.2122 98.2974C93.691 98.8178 92.984 99.1107 92.2464 99.1119Z" fill="#CACACA"/>
<path d="M343.906 370.648L336.731 370.647L333.318 343.059L343.908 343.059L343.906 370.648Z" fill="#9F616A"/>
<path d="M346.729 380.546L319.337 380.545V380.199C319.337 377.38 320.46 374.677 322.46 372.684C324.459 370.691 327.171 369.571 329.998 369.571H329.999L335.003 365.787L344.338 369.571L346.73 369.571L346.729 380.546Z" fill="#2F2E41"/>
<path d="M339.726 240.988L336.561 202.526L334.075 188.09L347.994 185.025L352.612 204.79L348.588 242.055C349.4 243.047 349.896 244.258 350.012 245.532C350.128 246.807 349.859 248.087 349.24 249.208C348.621 250.329 347.679 251.24 346.537 251.824C345.394 252.407 344.103 252.637 342.829 252.484C341.554 252.33 340.355 251.8 339.384 250.962C338.414 250.124 337.718 249.016 337.384 247.78C337.051 246.544 337.095 245.237 337.513 244.027C337.93 242.817 338.701 241.758 339.726 240.988H339.726Z" fill="#9F616A"/>
<path d="M305.795 370.648L298.62 370.647L295.206 343.059L305.796 343.059L305.795 370.648Z" fill="#9F616A"/>
<path d="M294.312 249.707L291.131 255.192C291.131 255.192 287.637 256.144 288.779 267.501C289.921 278.858 289.97 346.146 295.499 354.426L296.499 361.536L306.94 362.53L307.203 356.222L319.652 268.573C319.652 268.573 326.984 354.616 333.049 356.721L335.24 363.89L344.808 363.894L344.243 355.446L344.86 248.818L294.312 249.707Z" fill="#2F2E41"/>
<path d="M290.815 254.774L290.595 254.718C297.16 230.239 295.266 198.541 290.631 164.504L290.631 164.363L307.389 149.062H321.941L336.366 158.343C345.692 162.991 347.812 172.834 347.832 172.934L347.846 173.004L342.132 192.887L346.437 250.39L346.442 250.456L346.417 250.518C345.024 254.04 341.291 253.538 336.968 252.957C332.653 252.377 316.751 257.681 311.875 257.681C302.346 257.681 291.496 254.948 290.815 254.774Z" fill="#46B20F"/>
<path d="M333.345 166.092L339.597 163.381L347.833 173.448L354.509 205.706L331.642 202.252L333.345 166.092Z" fill="#46B20F"/>
<path d="M237.193 225.576L265.771 199.543L275.703 188.749L286.651 197.847L273.798 213.584L241.77 233.216C241.48 234.463 240.823 235.595 239.883 236.466C238.943 237.338 237.763 237.909 236.494 238.107C235.226 238.305 233.927 238.121 232.765 237.577C231.603 237.034 230.63 236.156 229.972 235.057C229.314 233.958 229 232.689 229.071 231.411C229.143 230.133 229.596 228.906 230.372 227.886C231.148 226.867 232.213 226.102 233.428 225.691C234.644 225.279 235.955 225.239 237.193 225.576L237.193 225.576Z" fill="#9F616A"/>
<path d="M265.149 199.827L273.064 189.58C273.129 189.433 279.696 174.805 285.388 168.449C291.227 161.928 295.824 165.263 295.87 165.299L295.984 165.385L296.302 189.463L274.386 215.569L265.149 199.827Z" fill="#46B20F"/>
<path d="M326.389 134.65C327.569 127.4 322.63 120.57 315.358 119.393C308.086 118.217 301.234 123.14 300.054 130.389C298.874 137.639 303.813 144.469 311.085 145.646C318.357 146.822 325.209 141.899 326.389 134.65Z" fill="#9F616A"/>
<path d="M301.026 130.545C301.026 130.545 300.919 125.87 300.326 123.802C299.733 121.733 298.548 119.96 299.141 119.96C299.733 119.96 300.03 118.483 300.03 118.483C300.03 118.483 300.623 118.187 300.919 118.483C301.216 118.778 301.512 116.414 301.512 116.414C301.512 116.414 301.809 115.528 302.105 116.119C302.401 116.71 302.401 116.414 302.698 115.528C302.994 114.641 304.477 114.05 304.477 114.05C304.477 114.05 310.109 114.346 310.998 113.163C311.887 111.981 321.966 112.868 324.041 114.346C326.116 115.823 335.306 121.142 333.824 125.575C332.341 130.008 328.075 140.214 327.006 141.237C325.315 142.855 324.144 143.439 316.144 145.025C314.579 145.336 306.587 140.241 306.587 139.355C306.587 138.468 307.551 135.657 306.002 135.271C303.661 134.687 303.398 137.638 302.805 136.751C302.212 135.865 301.026 130.545 301.026 130.545Z" fill="#2F2E41"/>
<path d="M308.617 380.546L281.225 380.545V380.199C281.225 377.38 282.348 374.677 284.348 372.684C286.347 370.691 289.059 369.571 291.887 369.571H291.888L296.891 365.787L306.227 369.571L308.618 369.571L308.617 380.546Z" fill="#2F2E41"/>
<path d="M451.008 381.067H2.4728C2.25398 381.067 2.04413 380.98 1.8894 380.826C1.73467 380.672 1.64774 380.463 1.64774 380.244C1.64774 380.026 1.73467 379.817 1.8894 379.663C2.04413 379.508 2.25398 379.422 2.4728 379.422H451.008C451.227 379.422 451.437 379.508 451.592 379.663C451.746 379.817 451.833 380.026 451.833 380.244C451.833 380.463 451.746 380.672 451.592 380.826C451.437 380.98 451.227 381.067 451.008 381.067Z" fill="#CACACA"/>
</g>
<defs>
<clipPath id="clip0_17_840">
<rect width="451.667" height="380.833" fill="white" transform="translate(0.166687 0.233398)"/>
</clipPath>
</defs>
</svg>
