<svg width="20" height="21" viewBox="0 0 20 21" fill="none" xmlns="http://www.w3.org/2000/svg">
<g id="calendar / calendar">
<path id="coolicon" d="M15.8333 18.5668H4.16667C3.24619 18.5668 2.5 17.8206 2.5 16.9001V5.23348C2.5 4.31301 3.24619 3.56681 4.16667 3.56681H5.83333V1.90015H7.5V3.56681H12.5V1.90015H14.1667V3.56681H15.8333C16.7538 3.56681 17.5 4.31301 17.5 5.23348V16.9001C17.5 17.8206 16.7538 18.5668 15.8333 18.5668ZM4.16667 8.56681V16.9001H15.8333V8.56681H4.16667ZM4.16667 5.23348V6.90015H15.8333V5.23348H4.16667ZM14.1667 15.2335H12.5V13.5668H14.1667V15.2335ZM10.8333 15.2335H9.16667V13.5668H10.8333V15.2335ZM7.5 15.2335H5.83333V13.5668H7.5V15.2335ZM14.1667 11.9001H12.5V10.2335H14.1667V11.9001ZM10.8333 11.9001H9.16667V10.2335H10.8333V11.9001ZM7.5 11.9001H5.83333V10.2335H7.5V11.9001Z" fill="#B7B7B7"/>
</g>
</svg>
