<svg width="46" height="46" viewBox="0 0 46 46" fill="none" xmlns="http://www.w3.org/2000/svg">
<g id="quality 1" clip-path="url(#clip0_90_347)">
<g id="XMLID_1364_">
<g id="XMLID_141_">
<path id="XMLID_162_" d="M40.9857 39.6268L35.293 29.7668C36.2372 28.9717 36.8897 27.8409 37.064 26.5595C37.1824 25.6882 37.6306 24.912 38.3259 24.3737C40.1284 22.9785 40.7843 20.5306 39.921 18.4209C39.5879 17.6071 39.5879 16.7108 39.921 15.897C40.7843 13.7873 40.1284 11.3396 38.3259 9.94427C37.6306 9.40604 37.1823 8.62976 37.064 7.75845C36.7568 5.49985 34.9648 3.70783 32.7062 3.40079C31.835 3.28229 31.0587 2.83416 30.5205 2.13884C29.1252 0.336276 26.6776 -0.319576 24.5677 0.543729C23.7539 0.876798 22.8575 0.876798 22.0438 0.543729C19.9343 -0.319664 17.4863 0.336276 16.091 2.13884C15.5528 2.83416 14.7765 3.28229 13.9052 3.40079C11.6465 3.70792 9.85457 5.49985 9.54753 7.75854C9.42903 8.62984 8.9809 9.40612 8.28558 9.94436C6.48302 11.3397 5.82716 13.7875 6.69047 15.8971C7.02354 16.7109 7.02354 17.6073 6.69047 18.421C5.82708 20.5306 6.48302 22.9785 8.28558 24.3738C8.9809 24.912 9.42903 25.6883 9.54753 26.5595C9.72404 27.8578 10.3918 29.0012 11.356 29.7977L5.68107 39.6268C5.50333 39.9347 5.52847 40.3194 5.74497 40.6014C5.96139 40.8834 6.32628 41.0074 6.6699 40.9154L11.6163 39.59L12.936 44.5152C13.0281 44.8586 13.3179 45.1127 13.6704 45.1591C13.7089 45.1642 13.7473 45.1667 13.7854 45.1667C14.0964 45.1667 14.388 45.0014 14.5464 44.7272L20.6699 34.121C21.1342 34.0709 21.5966 33.9573 22.0437 33.7743C22.8575 33.4412 23.754 33.4412 24.5676 33.7743C25.0337 33.9651 25.5165 34.0814 26.0008 34.1278L32.1203 44.7272C32.2787 45.0015 32.5703 45.1667 32.8813 45.1667C32.9194 45.1667 32.9578 45.1642 32.9964 45.1591C33.3489 45.1127 33.6387 44.8586 33.7307 44.5152L35.0505 39.59L39.9969 40.9154C40.3401 41.0074 40.7054 40.8836 40.9218 40.6014C41.1382 40.3194 41.1634 39.9347 40.9857 39.6268ZM14.0849 42.0103L13.0869 38.2859C13.0265 38.0607 12.8793 37.8687 12.6773 37.7522C12.4754 37.6356 12.2356 37.6041 12.0103 37.6644L8.26465 38.668L12.8834 30.6681C13.21 30.7849 13.5518 30.8692 13.9051 30.9173C14.7764 31.0358 15.5527 31.4839 16.0909 32.1792C16.774 33.0617 17.7096 33.6687 18.7341 33.9577L14.0849 42.0103ZM21.3777 32.1472C19.9968 32.7125 18.3945 32.2831 17.4811 31.1032C16.6589 30.041 15.473 29.3562 14.1419 29.1753C12.6635 28.9743 11.4904 27.8013 11.2894 26.3227C11.1084 24.9917 10.4238 23.8059 9.36152 22.9835C8.18158 22.0702 7.75226 20.4678 8.3174 19.0869C8.82627 17.8437 8.82627 16.4744 8.3174 15.2312C7.75226 13.8503 8.18158 12.2479 9.36152 11.3346C10.4238 10.5123 11.1084 9.32648 11.2894 7.99535C11.4905 6.51689 12.6635 5.34382 14.1419 5.14278C15.473 4.96187 16.6589 4.27719 17.4811 3.21496C18.1253 2.38277 19.1118 1.924 20.122 1.924C20.5442 1.924 20.9706 2.00425 21.3776 2.17083C22.621 2.67962 23.9903 2.67962 25.2335 2.17083C26.6143 1.60561 28.2168 2.03502 29.1301 3.21496C29.9523 4.27719 31.1382 4.96187 32.4691 5.14278C33.9476 5.34382 35.1206 6.51681 35.3217 7.99535C35.5027 9.32648 36.1874 10.5123 37.2496 11.3346C38.4295 12.2479 38.8588 13.8502 38.2937 15.2312C37.7849 16.4744 37.7849 17.8437 38.2937 19.0869C38.8588 20.4678 38.4294 22.0702 37.2496 22.9835C36.1874 23.8058 35.5027 24.9916 35.3217 26.3226C35.1206 27.8012 33.9476 28.9743 32.4692 29.1752C31.1381 29.3561 29.9522 30.0408 29.13 31.1031C28.2166 32.2831 26.6143 32.7124 25.2335 32.1472C23.9902 31.6385 22.621 31.6385 21.3777 32.1472ZM34.6563 37.6644C34.1872 37.5386 33.7055 37.8171 33.5798 38.2859L32.5817 42.0103L27.9246 33.9438C28.9304 33.6495 29.8478 33.0481 30.5205 32.1792C31.0586 31.4838 31.8349 31.0357 32.7061 30.9173C33.0759 30.867 33.433 30.7762 33.7733 30.6508L38.4019 38.668L34.6563 37.6644Z" fill="#2C2C2C"/>
<path id="XMLID_1190_" d="M19.311 13.9074L16.576 16.6423C16.4112 16.8071 16.3185 17.0307 16.3185 17.2639C16.3185 17.497 16.4112 17.7206 16.576 17.8854L21.7055 23.015C21.8703 23.1798 22.0939 23.2725 22.327 23.2725C22.5602 23.2725 22.7838 23.1798 22.9486 23.015L30.0908 15.8728C30.4341 15.5295 30.4341 14.9729 30.0908 14.6296L27.3559 11.8947C27.191 11.7299 26.9675 11.6372 26.7344 11.6372C26.5013 11.6372 26.2776 11.7299 26.1128 11.8947L22.3271 15.6804L20.5543 13.9075C20.3895 13.7427 20.1658 13.65 19.9327 13.65C19.6994 13.65 19.4758 13.7426 19.311 13.9074ZM21.7054 17.5452C21.8702 17.71 22.0938 17.8026 22.327 17.8026C22.5601 17.8026 22.7837 17.71 22.9485 17.5452L26.7342 13.7594L28.226 15.2512L22.327 21.1503L18.4407 17.2639L19.9325 15.7722L21.7054 17.5452Z" fill="#2C2C2C"/>
<path id="XMLID_1191_" d="M34.7609 17.4548C34.7609 15.1197 34.0611 12.8739 32.7372 10.9602C31.4444 9.09167 29.6486 7.66279 27.544 6.82823C27.0926 6.64934 26.5818 6.87007 26.4029 7.32137C26.2239 7.77267 26.4447 8.28356 26.8959 8.46254C30.6057 9.93361 33.0029 13.4633 33.0029 17.4548C33.0029 22.7865 28.6652 27.1242 23.3334 27.1242C18.0017 27.1242 13.664 22.7865 13.664 17.4548C13.664 13.4632 16.0611 9.93352 19.771 8.46245C20.2223 8.28348 20.4431 7.77258 20.2641 7.32128C20.0851 6.86998 19.5741 6.64916 19.1229 6.82814C17.0182 7.66279 15.2224 9.09158 13.9296 10.9602C12.6057 12.8738 11.9059 15.1196 11.9059 17.4547C11.9059 23.7558 17.0323 28.8822 23.3334 28.8822C29.6346 28.8823 34.7609 23.7559 34.7609 17.4548Z" fill="#2C2C2C"/>
<path id="XMLID_1218_" d="M23.3333 7.78515C23.5645 7.78515 23.7913 7.69197 23.9547 7.52759C24.1182 7.36409 24.2124 7.13818 24.2124 6.90611C24.2124 6.67492 24.1183 6.44813 23.9547 6.28463C23.7913 6.12113 23.5645 6.02707 23.3333 6.02707C23.1021 6.02707 22.8753 6.12113 22.7118 6.28463C22.5483 6.44813 22.4543 6.67492 22.4543 6.90611C22.4543 7.13818 22.5483 7.36409 22.7118 7.52759C22.8753 7.69197 23.1021 7.78515 23.3333 7.78515Z" fill="#2C2C2C"/>
</g>
</g>
</g>
<defs>
<clipPath id="clip0_90_347">
<rect width="45" height="45" fill="white" transform="translate(0.833344 0.166756)"/>
</clipPath>
</defs>
</svg>
